<svg xmlns="http://www.w3.org/2000/svg" viewBox="0 0 774 462"><defs><style type="text/css">.a,.b,.c{fill:#d6ddf1;}.a,.b,.c,.e,.f,.h,.i,.j,.k,.l,.m,.n,.o,.p,.r{fill-rule:evenodd;}.a{opacity:0.15;}.a,.b,.c,.e,.k{isolation:isolate;}.b{opacity:0.4;}.c{opacity:0.403;}.d{fill:#4f5d79;fill-opacity:0.6;}.e,.f{fill:#ffbb0d;}.e{opacity:0.402;}.g{fill:#3f3f3f;}.h{fill:#362a51;}.i{fill:#fdcdce;}.j{fill-opacity:0.605;}.k{fill:#760000;opacity:0.3;}.l,.s{fill:#f3626d;}.m{fill:#fff;}.n{fill:#533b0f;}.o{fill-opacity:0.603;}.p{fill:#1fbb7d;}.q{fill:#608dfa;}.r{fill:#ffaeae;}</style></defs><path class="a" d="M652.192,420.042H140.06c-111.9,0-191-122.18-80.772-192.956S130.027,114.062,235.9,58.094,489.56,101,652.192,154.141,799.149,420.042,652.192,420.042Z"/><path class="b" d="M766.745,283.212l-.014.01a27.3,27.3,0,0,0-1.177,12.106c1.723,11.028.273,21.444-10.721,36.532-7.527,10.332-2.063,19.385-1.511,30.5l.01.007a105.468,105.468,0,0,1-47.117,45.481,446.4,446.4,0,0,1,9.2-50.79h0l.461-1.939q9.865-41.159,47.424-79.362h0l.571-.581-1.164-1.141-.571.581-.754.77q-37.208,38.149-47.091,79.353a450.97,450.97,0,0,0-9.812,53.917l.01.011q-2.117.981-4.3,1.881l-.011-.011q-16.24-42.669-.206-88.442,16.279-46.476,64.133-53.155h.011Q765.795,276.059,766.745,283.212Z"/><path class="c" d="M39.617,276.14c-4.278-14.691,8.137-24.681,21.3-19.957s17.346,19.493,17.346,29.1-3.667,24.2,7.112,34.482,14.946,15.473,11.716,31.7S95.209,369.2,102.724,385c4.467,9.387,4.475,20.951-.648,29.853a147.27,147.27,0,0,1-26.572-9.58,252.992,252.992,0,0,0-.067-32.818q-2.1-27.852-15.788-93.088h0L58.518,274,56,274.56l1.128,5.353Q70.5,343.665,72.777,371.5h0l.091,1.155a248.185,248.185,0,0,1,.124,31.387A139.819,139.819,0,0,1,48.811,388.8c2.762-10.534,3.826-21.2-3.189-33.782-10.526-18.881-15.25-20.53-4.637-35.251S43.894,290.83,39.617,276.14Z"/><path class="d" d="M707.706,139.227q-7.818-2.081-15.367-4.364l-.463,1.532q7.572,2.289,15.418,4.378ZM677.13,129.97q-7.682-2.627-15-5.451l-.576,1.493q7.347,2.833,15.062,5.472Zm-29.778-11.5q-7.5-3.264-14.483-6.708l-.708,1.435q7.014,3.458,14.553,6.74Zm-28.6-14.145q-7.224-4.069-13.632-8.266l-.876,1.339q6.442,4.216,13.723,8.321ZM592.155,86.789a125.317,125.317,0,0,1-11.9-10.541l-1.14,1.122a127.007,127.007,0,0,0,12.05,10.677Zm-21.749-22.9c-3.328-5.6-4.595-10.6-3.768-14.69l-1.568-.317c-.917,4.535.448,9.917,3.961,15.824Zm6.659-24.746q.567-.2,1.163-.377c5.267-1.594,9.982-1.231,13.829.8l.747-1.415c-4.23-2.234-9.379-2.631-15.04-.918q-.625.191-1.223.4Zm23.146,12.664c.524,5.423-1.963,10.079-6.952,12.118l.605,1.481c5.677-2.32,8.529-7.658,7.939-13.753ZM577.9,63.814q-7.918-1.782-15.739-3.137l-.273,1.576q7.782,1.35,15.661,3.122Zm-31.59-5.47q-8.034-.969-15.972-1.5l-.106,1.6q7.9.525,15.886,1.488Zm-32-2.122q-8.059-.093-16.037.258l.07,1.6q7.936-.348,15.949-.257Zm-32.066,1.4q-7.981.791-15.914,2.01l.243,1.582q7.9-1.212,15.829-2Zm-31.7,4.849q-7.8,1.608-15.625,3.611l.4,1.551q7.8-2,15.551-3.595ZM419.468,70.4c-5.027,1.515-10.093,3.149-15.252,4.912l.517,1.514c5.142-1.756,10.189-3.384,15.2-4.895Zm-29.8,11.83-.562-1.5-2.2.829c-4.057,1.535-8.235,3.161-12.736,4.948l.59,1.487,2.42-.957C381.567,85.306,385.662,83.727,389.673,82.226ZM359.942,93.968l-.6-1.482L344.51,98.481l.593,1.487,10.367-4.182ZM329.6,104.214c-5.487,2.009-10.454,3.683-15.123,5.082l.46,1.533c4.7-1.409,9.7-3.094,15.213-5.112Zm-30.568,8.9a88.33,88.33,0,0,1-15.777,1.589l.006,1.6a89.965,89.965,0,0,0,16.063-1.616Zm-31.637.575c-5.025-.629-10.2-1.545-15.683-2.751l-.344,1.562c5.529,1.217,10.752,2.141,15.828,2.777ZM235.8,108.571l.43-1.541-2.949-.831c-3.339-.952-6.916-2.009-12.4-3.652l-.459,1.533,7.234,2.153C230.743,107.141,233.2,107.845,235.8,108.571Zm-30.716-9.014.437-1.539-2.1-.592c-4.832-1.349-9.193-2.48-13.413-3.465l-.363,1.559C194.443,96.638,199.427,97.949,205.088,99.557ZM174.232,90.9a144.668,144.668,0,0,0-16.015-1.528l-.059,1.6A142.757,142.757,0,0,1,174,92.485ZM142.117,89.83a112.574,112.574,0,0,0-15.889,2.7l.38,1.554a111.1,111.1,0,0,1,15.663-2.656Zm-31.231,7.594a131.269,131.269,0,0,0-12.758,5.868q-.9.474-1.8.963l.767,1.405q.883-.483,1.777-.952a130.078,130.078,0,0,1,12.6-5.8ZM82.743,112.91a113.351,113.351,0,0,0-12.26,10.461l1.124,1.14A111.626,111.626,0,0,1,83.693,114.2ZM59.882,135.49A103.8,103.8,0,0,0,51.226,149.1l1.414.75a102.094,102.094,0,0,1,8.522-13.4ZM44.831,163.909a95.42,95.42,0,0,0-3.864,15.662l1.58.25a93.856,93.856,0,0,1,3.8-15.4Zm-4.986,31.747a90.168,90.168,0,0,0,1.737,16.05l1.569-.314a88.564,88.564,0,0,1-1.706-15.765Zm6.333,31.594A93.723,93.723,0,0,0,53.4,241.684l1.365-.835a92.11,92.11,0,0,1-7.1-14.188ZM62.807,254.6a111.121,111.121,0,0,0,11.358,11.433l1.052-1.2a109.431,109.431,0,0,1-11.194-11.269Zm24.185,21.223q4.6,3.072,9.607,5.87l.78-1.4q-4.953-2.765-9.5-5.8Z"/><path class="e" d="M182.113,192H360.492a6.486,6.486,0,0,0,6.486-6.486c0-.188-.008-.376-.024-.563L355.111,48.971a6.487,6.487,0,0,0-6.463-5.923H254.054l-4.371-14.184a9.73,9.73,0,0,0-9.3-6.864h-73.25a6.486,6.486,0,0,0-6.487,6.486c0,.206.01.412.029.616l14.979,157.027A6.487,6.487,0,0,0,182.113,192Z"/><path class="f" d="M213.5,81.905H392.949a6.487,6.487,0,0,1,6.222,8.319L370.56,187.346A6.486,6.486,0,0,1,364.338,192H184.889a6.487,6.487,0,0,1-6.222-8.319l28.611-97.123A6.486,6.486,0,0,1,213.5,81.905Z"/><path class="g" d="M234.6,153.95a1.621,1.621,0,0,1,.147,3.236l-.147.007H208.649a1.622,1.622,0,0,1-.148-3.237l.148-.006Zm-4.865,14.571a1.622,1.622,0,0,1,.147,3.237l-.147.006H203.784a1.621,1.621,0,0,1-.148-3.236l.148-.007Z"/><path class="h" d="M541.534,104.538c10.962,17.346,8.557,24.906,15.654,41.461,5.1,11.906,11.015,6.837,26.623,16.972s11.143,23.968,44.008,27.5,15.234,14.884,39.529,23.242c-5.1,7.674-12.96,21.414-35.4,24.934s-33.9,24.757-36.675,21.276c-8.881-9.214-34.13-38.463-44.872-46.623-6.912-5.251-8.2-7.157-10.093-8.518q-6.289-3.31-16.5-4.976c-15.15-2.472-17.853,19.251-25.919,12.864-36.2-28.665-20.483-44.348-20.55-63.1-.067-18.792-3.775-24.046-2.84-32.215q-.675-10.119,9.3-19.23C497.332,85.771,530.571,87.193,541.534,104.538Z"/><path class="i" d="M492.881,165.313l33.913-15.1,2.656,3.033,1.394,39.683q-5.339,12.845-20.85,12.844T486.85,193.523Z"/><polygon class="j" points="492.598 166.664 506.151 167.439 512.369 170.549 491.191 173.762 492.598 166.664"/><path class="i" d="M514.48,170.567c10.94-1.8,14.131-8.542,14.91-17.359-3.97-4.675-6.956-8.061-9.294-14.727C516.314,127.7,515.1,121,518.814,115.639c-10.349,6.519-22.074,8.58-37.708,9.094-.51,4.3-.835,9.354-1.179,15.225-.868,14.805-.773,22.052,3.445,23.914S506.155,171.934,514.48,170.567Z"/><path class="i" d="M523.538,149.788c3.573,1.377,7.826-1.451,9.5-6.318s.131-9.928-3.442-11.306-7.826,1.451-9.5,6.317S519.965,148.41,523.538,149.788Z"/><path class="k" d="M523.866,137.749a3.987,3.987,0,0,1,4.43-1.669c2.042.766,2.923,3.578,1.967,6.282a5.372,5.372,0,0,1-3.7,3.637q-.045-.375-.113-.751a21.179,21.179,0,0,0-2.641-7.422Z"/><path class="l" d="M484.754,193.712c5.533-1.52,29.72-2.465,36.679-1.379s33.216-1.553,74.158,41.691q29.214,30.858,48.448,82.24-14.877,3.995-54.792,16.219L595.927,420H413.958l14.091-88H366.58c11.5-39.24,24.834-66.661,42.761-88.921C441.806,202.767,479.22,195.233,484.754,193.712Z"/><polygon class="m" points="544.729 267 456 267 472.271 386.233 561 386.233 544.729 267"/><path class="n" d="M518.088,327.382l38.688,27.95,1.266,7.877q-26.513-18.981-32.319-22.928t-29.2-12.222Z"/><path class="i" d="M589,332l55.039-15.736q1.961,3.736,9.249,26.4,7.342,25.589-7.334,41.639l-44.508-24.262Z"/><polygon class="o" points="440.322 302 422.506 365.563 428 332 440.322 302"/><path class="o" d="M575,299l14.247,33.483,1.587,24.634-6.758-.79a148.571,148.571,0,0,0-2.021-22.577Q580.06,321.153,575,299Z"/><path class="i" d="M529.034,315.422Q602.5,334.937,622.5,338.9t30.361,7.168q4.351,32.477-11.024,42.579t-43.967-7.5q-55.287-33.793-65-40.422c-9.717-6.628-29.345-9.453-35.717-12.645s-11.14-12.727-11.14-14.551-.352-4.081,3.271-4.081q3.623,0,21.789,2.411-8.075-4.711-8.074-8.514c0-3.8,10.054,1.313,16.74,4.434Q526.421,310.9,529.034,315.422Z"/><path class="i" d="M462.34,201.261a112.481,112.481,0,0,1,48.493-10.795,90.478,90.478,0,0,1,47.007,12.718q-26.556,32.984-57.092,31.429T462.34,201.261Z"/><path class="i" d="M377.215,320l50.834,11.333q-6.78,23.959-15.5,40.024c-8.723,16.066-38.666,23.278-53.762,0Q343.69,348.08,377.215,320Z"/><path class="i" d="M324.7,264.855c-5.965-12.218-13.818-18.856-17.348-20.983s-4.781-2.538-4.225-3.708,2.067-1.687,4.986-1.687a19.876,19.876,0,0,1,7.129,1.687q-4.914-5.871-4.732-8.338c.182-2.467,2.727-3.916,4.732-2.185a103.1,103.1,0,0,1,7.417,7.825l-1.605-8.98c-.515-2.886,2.767-5.549,4.843-1.171s3.611,8.734,4.539,10.151c3.35,5.113,8.6,8.129,9.864,6.7,3.947-4.455,4.96-8.482,5.9-10.392,2.6-5.286,8.365-4.131,5.827,3.694-1.941,5.985-.69,19.024,1.6,26.434s57.831,83.046,59.762,88.35,8.559,22.393-19.893,32.053-41.4-25.567-47.3-46.8S330.665,277.073,324.7,264.855Z"/><path class="g" d="M494.842,154.973a1.5,1.5,0,1,0-.5,2.958,11.849,11.849,0,0,0,6.253-.581,7.873,7.873,0,0,0,4.547-4.189,1.5,1.5,0,0,0-2.73-1.244,4.88,4.88,0,0,1-2.878,2.627A8.863,8.863,0,0,1,494.842,154.973Zm.759-6.023a1.5,1.5,0,0,0,.027-3l-.282,0a10.315,10.315,0,0,1-2.107-.212l-.112-.03.075-.25c.1-.312.233-.691.4-1.134l.224-.563q.829-2.04,2.453-5.436l.68-1.411a1.5,1.5,0,1,0-2.7-1.312c-3.183,6.545-4.462,9.693-4.188,10.983C490.459,148.38,492.32,148.92,495.6,148.95Zm15.761,169.834a1,1,0,0,0,.132-1.993l-24-3-.117-.007a1,1,0,0,0-.131,1.992l24,3ZM620.83,336.037l-31-7-.142-.025a1.5,1.5,0,0,0-.518,2.951l31,7,.142.025a1.5,1.5,0,0,0,.518-2.951ZM513.541,323.8l-23-4-.116-.014a1,1,0,0,0-.227,1.984l23,4,.116.013a1,1,0,0,0,.227-1.983Zm51.542-99.882q-31.867,24.606-64.329,24.583c-21.441,0-37.183-9.687-47.426-29.2a1.5,1.5,0,0,0-2.656,1.394c10.757,20.49,27.517,30.8,50.082,30.8q33.533,0,66.163-25.209a1.5,1.5,0,0,0-1.834-2.374Zm-140.089,88.2-.136-.049-42-13a1.5,1.5,0,0,0-1.023,2.817l.136.049,42,13a1.5,1.5,0,0,0,1.023-2.817Zm-17.6,26.648L395.942,323a1.5,1.5,0,0,0-2.506,1.643l.079.121,11.458,15.764a1.5,1.5,0,0,0,2.506-1.643Zm-71.211-93.746c-3.914-.751-6.653-1.728-8.193-2.888a16.7,16.7,0,0,1-4.144-4.655,1,1,0,0,0-1.7,1.05,18.681,18.681,0,0,0,4.643,5.2c1.834,1.382,4.832,2.452,9.02,3.255a1,1,0,1,0,.376-1.964ZM648.946,303.1a1.5,1.5,0,0,0-1.844-1.047l-55.5,15.3-.138.045a1.5,1.5,0,0,0,.935,2.847l55.5-15.295.137-.045A1.5,1.5,0,0,0,648.946,303.1Zm-315-56.2c-5.21.3-8.555-.1-9.909-1.073q-1.739-1.242-5.448-4.217l-2.956-2.389a1,1,0,0,0-1.262,1.55q5.466,4.452,7.979,6.3l.523.38c1.744,1.247,5.12,1.709,10.236,1.491l.949-.048a1,1,0,0,0-.112-2Z"/><path class="p" d="M338.72,150h34.96a30.72,30.72,0,0,1,0,61.44H338.72a30.72,30.72,0,0,1,0-61.44Z"/><path class="m" d="M356.5,161a2.5,2.5,0,0,1,2.5,2.5v15h15a2.5,2.5,0,0,1,0,5H359v14a2.5,2.5,0,0,1-5,0v-14H339a2.5,2.5,0,0,1,0-5h15v-15A2.5,2.5,0,0,1,356.5,161Z"/><circle class="q" cx="713" cy="152" r="43"/><path class="r" d="M721.368,161.357l-16.285-12.522-2.424,27.979q1.853,7.433,10.623,7.433t10.624-6.91Z"/><path class="j" d="M713.029,167.016c-4.889,0-8.963-3.442-8.963-5.538s4.074-3.537,8.963-3.537,8.393,2.257,8.393,4.352S717.919,167.016,713.029,167.016Z"/><path class="r" d="M709.425,128.6q-.436,0-.873.038a10.116,10.116,0,0,0-9.206,10.953h0l.176,2.026a3.725,3.725,0,0,0-2.4-.006c-2.217.776-3.173,3.626-2.135,6.366.962,2.543,3.3,4.1,5.408,3.689l.268,3.1a10.118,10.118,0,0,0,10.08,9.245h5.127a10.118,10.118,0,0,0,10.076-9.2h0l.285-3.137c2.09.372,4.4-1.178,5.353-3.7,1.038-2.74.081-5.59-2.136-6.366a3.7,3.7,0,0,0-2.3-.027l.177-1.948c.028-.305.042-.612.042-.918A10.118,10.118,0,0,0,717.25,128.6h-7.825Z"/><path class="k" d="M727.447,149.341a28.285,28.285,0,0,0,0-5.565c.935,0,2.338.028,2.517,1.989S728.382,149.341,727.447,149.341Z"/><path class="k" d="M699.316,149.341a28.285,28.285,0,0,1,0-5.565c-.935,0-2.338.028-2.517,1.989S698.381,149.341,699.316,149.341Z"/><path class="g" d="M717.1,152.187a.749.749,0,0,0-.976.415,2.224,2.224,0,0,1-1.234,1.285,3.332,3.332,0,0,1-1.978.2.75.75,0,1,0-.279,1.473,4.824,4.824,0,0,0,2.845-.3,3.718,3.718,0,0,0,2.037-2.1A.75.75,0,0,0,717.1,152.187Zm-3.583-2.334a.751.751,0,0,0-.744-.756l-.208,0a5.769,5.769,0,0,1-.952-.088l-.045-.011.057-.158c.032-.085.069-.178.112-.279l.142-.33q.409-.918,1.213-2.45l.337-.637a.75.75,0,0,0-1.324-.706c-1.608,3.015-2.233,4.416-2.085,5.049.2.862,1.1,1.1,2.741,1.113A.75.75,0,0,0,713.521,149.853Z"/><path class="h" d="M724.567,134.271c1.922,0,1.274,8.608,1.96,11.517.978.485,1.624-5.717,2.185-13.443s-2.185-12.159-15.188-12.159-16.006,5.837-15.663,11.718,1.128,13.025,2.282,13.884c.3-2.4.3-11.261,2.28-11.517,1-.129,3.417.69,11.318.742A57.6,57.6,0,0,0,724.567,134.271Z"/><circle class="s" cx="127" cy="299" r="43"/><path class="h" d="M100,323.015c3.277-4.324,3.823-8.442,5.782-12.584s.192-10.315,3.695-14.979,1.879-9.672,2.263-14.32c.78-9.456,4.986-14.44,13.747-15.072s14.464,3.8,16.483,13.682c.781,3.825-.191,9.911,2.695,14.953s2.744,8.958,2.744,14.01,6.357,13.339,7.591,14.31c-5.707,1.773-18.883,1.931-26.653,1.981S105.638,324.622,100,323.015Z"/><path class="i" d="M133.933,301.727,119.35,290.549l-2.171,25.88q1.659,6.636,9.513,6.636t9.513-6.169Z"/><path class="j" d="M126.5,307.259c-4.467,0-8.188-3.255-8.188-5.237s3.721-3.344,8.188-3.344,7.666,2.134,7.666,4.115S130.961,307.259,126.5,307.259Z"/><path class="i" d="M136.205,277.36c-3.657,2.348-12.853,4.525-21.157,4.525a20.8,20.8,0,0,0-.313,3.3,3.174,3.174,0,0,0-2.024-.023c-1.812.611-2.594,2.857-1.746,5.017a4.319,4.319,0,0,0,4.187,2.941l.192,2.2a9.608,9.608,0,0,0,9.573,8.777h3.55a9.608,9.608,0,0,0,9.573-8.777h0l.192-2.2a4.317,4.317,0,0,0,4.187-2.941c.848-2.16.067-4.406-1.746-5.017a3.109,3.109,0,0,0-1.765-.052A15.636,15.636,0,0,1,136.205,277.36Z"/><path class="k" d="M139.085,291.646a25.184,25.184,0,0,0,0-4.968c.837,0,2.094.024,2.254,1.775A3.076,3.076,0,0,1,139.085,291.646Z"/><path class="k" d="M114.462,291.452a25.185,25.185,0,0,1,0-4.968c-.837,0-2.094.025-2.254,1.775A3.075,3.075,0,0,0,114.462,291.452Z"/><path class="g" d="M130.144,293.466a.75.75,0,0,0-.976.414,1.915,1.915,0,0,1-1.063,1.1,2.917,2.917,0,0,1-1.727.177.75.75,0,0,0-.279,1.474,4.415,4.415,0,0,0,2.593-.271,3.405,3.405,0,0,0,1.866-1.921A.751.751,0,0,0,130.144,293.466Zm-3.159-2.008a.75.75,0,0,0-.744-.756l-.21,0a5.6,5.6,0,0,1-.673-.052l-.092-.015.1-.246c.043-.1.093-.219.149-.345l.084-.185q.308-.669.823-1.66l.478-.906a.75.75,0,1,0-1.323-.707c-1.46,2.729-2.014,3.968-1.875,4.564.193.825,1.02,1.043,2.531,1.056A.751.751,0,0,0,126.985,291.458Z"/></svg>